<?xml version="1.0" encoding="UTF-8"?>
<svg version="1.1" xmlns="http://www.w3.org/2000/svg" width="1600" height="1600">
<path d="M0 0 C528 0 1056 0 1600 0 C1600 528 1600 1056 1600 1600 C1072 1600 544 1600 0 1600 C0 1072 0 544 0 0 Z " fill="#F6F6F6" transform="translate(0,0)"/>
<path d="M0 0 C92.18581712 -4.39087307 195.68081966 41.24327549 263.87890625 101.28125 C266.65665392 103.72546427 269.52968596 106.02382404 272.4375 108.3125 C275.79177382 110.97517097 278.75593054 113.76243967 281.62890625 116.92578125 C282.59002319 117.96255005 282.59002319 117.96255005 283.57055664 119.02026367 C284.82832905 120.39230669 286.05981835 121.78906092 287.25952148 123.2121582 C289.81912843 125.98691745 291.62963364 127.8340429 295.4675293 128.29882812 C298.3903749 128.08531585 301.13375699 127.61066913 304 127 C304.99660645 126.80486816 305.99321289 126.60973633 307.02001953 126.40869141 C310.29570038 125.73451237 313.55264445 124.99679311 316.8125 124.25 C347.60450864 117.44889712 379.01724742 113.12514504 410.3125 109.3125 C411.18559814 109.20534668 412.05869629 109.09819336 412.95825195 108.98779297 C423.28273464 107.77448825 433.64390578 106.89381603 444 106 C444.86227203 105.92532501 445.72454407 105.85065002 446.61294556 105.77371216 C519.90063328 99.53218075 594.91401328 101.21786862 668 109 C669.10613647 109.11634796 669.10613647 109.11634796 670.23461914 109.23504639 C699.35893361 112.31053802 728.52080606 117.05629464 757.0625 123.66577148 C763.07465767 125.1546536 763.07465767 125.1546536 769 124 C771.73092381 121.86288745 771.73092381 121.86288745 774.4375 119.125 C780.40786005 113.42580744 786.7261072 108.34371732 793.27392578 103.32763672 C794.93001777 102.05382792 796.57400871 100.76603222 798.21484375 99.47265625 C821.18661339 81.440403 846.29803035 66.14378576 871.89208984 52.15820312 C873.75466699 51.13479961 875.60670141 50.09225909 877.45703125 49.046875 C908.54720846 31.81879077 943.45121287 18.26070359 978 10 C979.38638672 9.66186279 979.38638672 9.66186279 980.80078125 9.31689453 C1008.96174114 2.51132922 1036.10550376 -0.76886389 1065 0 C1086.15248595 54.44136155 1098.07798483 107.94609774 1098.25 166.5625 C1098.25535767 167.5883017 1098.26071533 168.61410339 1098.26623535 169.67098999 C1098.31747865 182.60565285 1097.69636029 195.17907029 1096 208 C1095.72614861 210.4788351 1095.45487421 212.95795789 1095.1875 215.4375 C1092.69415766 234.59090253 1088.74926472 253.12247072 1083.03491211 271.55688477 C1080.04447018 281.11101418 1080.04447018 281.11101418 1079 291 C1080.21923337 293.34430507 1080.21923337 293.34430507 1082.375 294.875 C1085.70028181 297.79686807 1088.54331901 300.72727565 1091.3125 304.1875 C1093.72375374 307.1953526 1096.14173799 310.18643186 1098.6640625 313.1015625 C1105.28005303 320.74793142 1111.28950277 328.65717972 1117 337 C1117.41636719 337.60602051 1117.83273437 338.21204102 1118.26171875 338.83642578 C1124.13463023 347.41765297 1129.67990788 356.16497025 1134.91748047 365.14794922 C1135.94630673 366.90813777 1136.99032878 368.65941847 1138.03515625 370.41015625 C1150.95220334 392.3935657 1161.59565816 415.9581286 1170 440 C1170.41056641 441.16869629 1170.82113281 442.33739258 1171.24414062 443.54150391 C1185.38968011 484.32129074 1193.85567812 526.47309444 1197.70629883 569.43334961 C1197.9494017 571.95049146 1197.9494017 571.95049146 1198.48399353 574.18692017 C1199.11747317 577.64042103 1199.35560154 581.07650902 1199.54980469 584.57592773 C1199.61275789 585.68863493 1199.61275789 585.68863493 1199.67698288 586.82382107 C1200.14540648 595.80763868 1200.18391697 604.79112309 1200.203125 613.78515625 C1200.20595238 614.7004907 1200.20877975 615.61582516 1200.21169281 616.55889702 C1200.22656049 621.41337225 1200.23586532 626.26781878 1200.24023438 631.12231445 C1200.24459464 635.0556783 1200.25840921 638.98881978 1200.28125 642.92211914 C1200.41071451 665.68862646 1199.98142148 688.05837824 1197.36810303 710.6885376 C1196.93060371 714.6242905 1196.59687769 718.56355036 1196.27157593 722.50982666 C1195.35377139 733.39459844 1193.62280257 744.08234522 1191.65087891 754.8215332 C1191.12359785 757.69514154 1190.60962933 760.57089444 1190.09765625 763.44726562 C1187.32741703 778.87614893 1184.34336278 794.27230964 1179.875 809.3125 C1179.58206055 810.30266113 1179.28912109 811.29282227 1178.98730469 812.31298828 C1170.64618901 840.03796342 1160.71536384 867.44101609 1147 893 C1146.62020996 893.71027344 1146.24041992 894.42054688 1145.84912109 895.15234375 C1134.50143605 916.24816098 1121.53961097 935.70351767 1106.41210938 954.26318359 C1105.09448539 955.8837882 1103.78761548 957.51235288 1102.484375 959.14453125 C1098.78179181 963.74757259 1095.04166088 968.12926648 1090.77783203 972.21972656 C1089.01461975 973.98536017 1087.40647732 975.82004562 1085.79296875 977.72265625 C1082.07442411 981.99839452 1078.08381394 985.89267447 1073.9375 989.75 C1073.19290527 990.44464355 1072.44831055 991.13928711 1071.68115234 991.85498047 C1022.33102788 1037.64321254 962.28333828 1067.31067354 899.17611694 1089.24276733 C897.72883141 1089.74638544 896.28255192 1090.25290432 894.83731079 1090.76235962 C882.45705241 1095.11518493 869.9317869 1098.45589317 857.1875 1101.5625 C855.32731419 1102.02214035 853.46728759 1102.48242551 851.60742188 1102.94335938 C846.99270547 1104.0842772 842.3749349 1105.21207456 837.75509644 1106.33206177 C835.91133333 1106.77905878 834.06784922 1107.2272081 832.22463989 1107.67648315 C821.21164077 1110.35806872 810.21382437 1112.89120065 799.0625 1114.9375 C798.07461487 1115.11984695 798.07461487 1115.11984695 797.06677246 1115.30587769 C765.77134566 1121.06716089 734.39873641 1125.47440273 702.74334717 1128.71679688 C700.09789362 1128.98989418 697.45343796 1129.27118188 694.80908203 1129.5546875 C640.6676473 1135.30437484 586.02895756 1136.28529512 531.625 1136.25 C530.73880981 1136.24973312 529.85261963 1136.24946625 528.9395752 1136.24919128 C509.1917027 1136.23972563 489.45307623 1136.03146439 469.7109375 1135.546875 C468.89726337 1135.52769264 468.08358925 1135.50851028 467.24525833 1135.48874664 C458.9974651 1135.28951207 450.79171292 1134.98535639 442.57223511 1134.22799683 C438.90303755 1133.90276785 435.23480676 1133.74550248 431.5546875 1133.60546875 C429.99028301 1133.53950899 428.42591246 1133.47274068 426.86157227 1133.40527344 C426.05148712 1133.37042847 425.24140198 1133.3355835 424.4067688 1133.29968262 C376.16622371 1131.16214518 327.43275728 1126.09286592 280 1117 C278.57596616 1116.73243449 277.15180602 1116.46554058 275.72753906 1116.19921875 C197.86147589 1101.62186153 121.49486832 1078.52035206 54 1036 C53.17564453 1035.48083008 52.35128906 1034.96166016 51.50195312 1034.42675781 C33.24316491 1022.81796413 15.99230292 1009.56901286 0 995 C-0.68545898 994.37625488 -1.37091797 993.75250977 -2.07714844 993.10986328 C-15.19822165 981.1044068 -27.44594186 968.67704477 -38.26171875 954.54296875 C-40.09376009 952.15056932 -41.96895821 949.80604112 -43.89453125 947.48828125 C-74.80723956 910.1678967 -95.24648546 863.88634771 -109.14306641 817.81689453 C-109.91680666 815.27347145 -110.72401789 812.74397233 -111.54296875 810.21484375 C-117.39215173 791.60768833 -120.52852032 772.16401428 -124 753 C-124.20906982 751.85183807 -124.20906982 751.85183807 -124.42236328 750.68048096 C-126.39359475 739.74398252 -127.79815065 728.80713643 -128.88037109 717.74853516 C-129.1263075 715.23664571 -129.38080386 712.72573442 -129.63671875 710.21484375 C-129.80257639 708.56515366 -129.96795756 706.91541559 -130.1328125 705.265625 C-130.20573517 704.54127258 -130.27865784 703.81692017 -130.35379028 703.07061768 C-130.58336172 700.71480642 -130.79495356 698.35807607 -131 696 C-131.0896402 694.99188263 -131.1792804 693.98376526 -131.27163696 692.94509888 C-132.05784136 683.23026503 -132.1464915 673.57423101 -132.1328125 663.8359375 C-132.1334888 662.11023953 -132.13446152 660.38454165 -132.13571167 658.65884399 C-132.1371757 655.060151 -132.13507774 651.46148302 -132.13037109 647.86279297 C-132.12470062 643.31163198 -132.12794412 638.76053034 -132.13394356 634.20937157 C-132.13760671 630.64856543 -132.13638417 627.0877727 -132.13381577 623.52696609 C-132.13316093 621.85209775 -132.1339227 620.17722809 -132.13629532 618.5023613 C-132.18223479 576.94590786 -126.90929727 535.14846993 -116 495 C-115.7637793 494.11586426 -115.52755859 493.23172852 -115.28417969 492.32080078 C-108.30493604 466.47788898 -99.16208034 441.32153669 -88 417 C-87.27721922 415.39068092 -86.55455949 413.78130748 -85.83203125 412.171875 C-76.90237482 392.5547718 -65.82472489 373.99590484 -54 356 C-53.54947266 355.31389648 -53.09894531 354.62779297 -52.63476562 353.92089844 C-38.50045471 332.55435982 -22.13178107 312.13178107 -4 294 C-4.3929154 290.32223367 -5.64929051 287.13797936 -7.07421875 283.74609375 C-7.49171387 282.73699951 -7.90920898 281.72790527 -8.33935547 280.68823242 C-8.78424316 279.61549072 -9.22913086 278.54274902 -9.6875 277.4375 C-16.52043876 260.61056733 -21.37572339 243.92896877 -24.61816406 226.06933594 C-24.92836714 224.38820982 -25.26835014 222.71259871 -25.6171875 221.0390625 C-29.31595967 203.00043513 -29.34155172 184.45352258 -29.25 166.125 C-29.24385178 164.37438766 -29.24385178 164.37438766 -29.23757935 162.58840942 C-29.06130345 119.66321388 -24.95924456 77.38815845 -13 36 C-12.7436377 35.10120117 -12.48727539 34.20240234 -12.22314453 33.27636719 C-8.92136301 21.85224608 -4.72080952 10.90814271 0 0 Z " fill="#465A65" transform="translate(266,234)"/>
<path d="M0 0 C1.03667816 -0.00267883 2.07335632 -0.00535767 3.14144897 -0.00811768 C26.18148625 -0.05334752 49.7387568 0.02570437 72.41796875 4.60009766 C74.98447065 5.10951227 77.55549031 5.56846347 80.1328125 6.01953125 C142.2843147 17.29995612 195.85422479 48.33005664 232.54443359 100.37841797 C238.0005086 108.30110441 242.65747527 116.58125846 247.0625 125.125 C247.45034668 125.86943359 247.83819336 126.61386719 248.23779297 127.38085938 C264.54592464 159.02615639 271.71445292 193.5261911 271.375 228.9375 C271.36496855 231.00870719 271.35504144 233.07991488 271.34521484 235.15112305 C271.22984866 251.53720772 270.51934807 267.8008984 269.0625 284.125 C268.99305176 284.97545898 268.92360352 285.82591797 268.85205078 286.70214844 C264.08532254 344.36379236 245.39288168 400.8258275 205.0625 443.125 C204.33546875 443.90488281 203.6084375 444.68476562 202.859375 445.48828125 C176.88220071 472.57189074 141.36568715 487.91979145 106.5625 500 C105.90616577 500.22929199 105.24983154 500.45858398 104.5736084 500.69482422 C94.85468145 504.07288152 85.07705955 506.77296402 75.0625 509.125 C74.12132324 509.35010254 73.18014648 509.57520508 72.21044922 509.80712891 C7.66223967 525.00601706 -59.29390493 529.38675077 -125.41235352 530.78393555 C-126.13431412 530.80009918 -126.85627472 530.81626282 -127.60011292 530.83291626 C-129.51980739 530.87521159 -131.43958893 530.91350535 -133.359375 530.95141602 C-135.92598413 531.02513488 -138.47197423 531.16447341 -141.03327942 531.3536377 C-154.62037075 532.35006913 -168.205832 532.34481727 -181.82421875 532.3984375 C-183.18346573 532.40462803 -184.5427123 532.4109088 -185.90195847 532.41727638 C-195.38519249 532.46055418 -204.86840391 532.48405137 -214.3517251 532.49686766 C-216.625469 532.50000065 -218.89921155 532.50369903 -221.17295456 532.50741959 C-259.83329131 532.56536704 -298.40237082 532.29298274 -337 529.8125 C-337.84378078 529.75888054 -338.68756157 529.70526108 -339.55691147 529.65001678 C-367.70054729 527.84913644 -395.76079744 525.21121591 -423.6875 521.25 C-424.60184814 521.12149658 -425.51619629 520.99299316 -426.45825195 520.8605957 C-440.07368945 518.93845794 -453.58253638 516.75269943 -467.01220703 513.77246094 C-470.18002485 513.07132149 -473.35317773 512.39834854 -476.52734375 511.7265625 C-547.55912443 496.53126572 -627.20923547 468.40247577 -673.25 408.5625 C-673.71801025 407.95736572 -674.18602051 407.35223145 -674.66821289 406.72875977 C-676.09941506 404.86687064 -677.5195403 402.99698621 -678.9375 401.125 C-679.57026855 400.29935547 -679.57026855 400.29935547 -680.21582031 399.45703125 C-709.87083355 360.54513143 -722.35128034 313.93433446 -727.9375 266.125 C-728.09653809 264.87638184 -728.09653809 264.87638184 -728.25878906 263.60253906 C-732.86092467 224.39366328 -727.88344443 182.56930668 -712.9375 146.125 C-712.65213379 145.4036084 -712.36676758 144.6822168 -712.07275391 143.93896484 C-704.61615386 125.18601526 -693.85028166 107.61617929 -680.9375 92.125 C-680.03492588 91.01971933 -679.13258989 89.91424417 -678.23046875 88.80859375 C-673.17499412 82.6737908 -667.88852635 76.93337545 -662.19140625 71.37890625 C-660.21730684 69.40480684 -658.41359048 67.39015618 -656.625 65.25 C-651.57272286 59.3655831 -645.73137377 54.26143785 -639.9375 49.125 C-639.050625 48.33867188 -638.16375 47.55234375 -637.25 46.7421875 C-607.72868244 21.63106677 -572.41846267 11.25454842 -534.9375 5.125 C-533.22252319 4.84221191 -533.22252319 4.84221191 -531.47290039 4.55371094 C-522.12783141 3.10972264 -512.80954216 2.4599234 -503.375 2 C-502.53250702 1.95863922 -501.69001404 1.91727844 -500.82199097 1.87466431 C-465.48509071 0.19035418 -430.26665891 1.22892391 -394.9375 2.5625 C-393.59610899 2.61305857 -393.59610899 2.61305857 -392.22761917 2.66463852 C-387.00924758 2.86219661 -381.79109331 3.06462862 -376.57315254 3.27326202 C-374.96802845 3.33740511 -373.36287946 3.40092903 -371.75770378 3.46376801 C-363.38400073 3.79374768 -355.03504493 4.22789949 -346.68106079 4.911026 C-343.34425332 5.17126811 -340.01339421 5.31301155 -336.66796875 5.40625 C-335.42853516 5.44363281 -334.18910156 5.48101563 -332.91210938 5.51953125 C-331.03749023 5.57173828 -331.03749023 5.57173828 -329.125 5.625 C-321.74935464 5.83233204 -314.40813931 6.07625531 -307.05029297 6.62768555 C-295.53573489 7.39868191 -284.00007264 7.32836363 -272.46484375 7.36328125 C-271.2436553 7.36806299 -270.02246685 7.37284473 -268.76427269 7.37777138 C-260.15638908 7.41099492 -251.54856459 7.42785934 -242.94062901 7.43552876 C-240.87264748 7.43750225 -238.80466741 7.44008525 -236.73668671 7.44277191 C-193.30888058 7.49491432 -150.06570838 6.52875236 -106.71920395 3.73865318 C-95.06911064 2.98949332 -83.41299751 2.43904507 -71.75 1.9375 C-70.00170609 1.86106879 -68.25341497 1.78457366 -66.50512695 1.70800781 C-63.36808872 1.57126389 -60.23096265 1.43687562 -57.09375 1.30419922 C-53.33268212 1.14418358 -49.57264778 0.96556197 -45.8125 0.78515625 C-30.54353879 0.09529354 -15.28210072 0.02200241 0 0 Z " fill="#FECBBB" transform="translate(1028.9375,767.875)"/>
<path d="M0 0 C1.01578125 0.42410156 2.0315625 0.84820313 3.078125 1.28515625 C12.92341872 5.8165158 21.46463916 12.2475186 29 20 C29.804375 20.78375 30.60875 21.5675 31.4375 22.375 C36.81294768 27.88155616 41.41599735 33.77406536 45.75 40.125 C46.23082031 40.81464844 46.71164062 41.50429688 47.20703125 42.21484375 C49.62111698 45.73174302 51.51189977 48.98212938 53 53 C53.71542969 54.16595703 53.71542969 54.16595703 54.4453125 55.35546875 C56.31936226 58.54323681 57.60806244 61.85314347 58.875 65.3125 C59.1332959 66.0132666 59.3915918 66.7140332 59.65771484 67.43603516 C63.43299078 77.80703565 66.72231513 88.23668099 69.1875 99 C69.34234863 99.66241699 69.49719727 100.32483398 69.65673828 101.00732422 C72.78561499 115.33751147 73.37222055 129.5817998 73.3125 144.1875 C73.31100952 145.09075012 73.30951904 145.99400024 73.3079834 146.92462158 C73.2686436 160.18830043 72.67704117 172.97763753 70 186 C69.7046485 187.62196375 69.41173274 189.24437269 69.12109375 190.8671875 C63.51165231 220.93080193 49.91758968 252.10768569 27 273 C26.16855469 273.81984375 26.16855469 273.81984375 25.3203125 274.65625 C9.11448214 289.9578924 -10.57421248 295.55196123 -32.41796875 295.28515625 C-42.67987722 294.94084335 -51.84696769 291.49052733 -61 287 C-61.969375 286.5875 -62.93875 286.175 -63.9375 285.75 C-68.7082176 283.02387565 -72.79246799 279.51606163 -77 276 C-77.71800781 275.41863281 -78.43601562 274.83726562 -79.17578125 274.23828125 C-84.2414535 270.01852708 -88.08373961 265.27762709 -92 260 C-92.9590625 258.83597656 -92.9590625 258.83597656 -93.9375 257.6484375 C-108.77465044 238.5961875 -118.31640309 213.56029512 -122.62792969 190.01318359 C-122.87906304 188.65436102 -123.14306205 187.29786212 -123.41894531 185.94384766 C-129.62393855 154.75780376 -127.75248076 120.65607537 -120 90 C-119.80019531 89.09636719 -119.60039062 88.19273437 -119.39453125 87.26171875 C-113.89238745 62.92673374 -102.00953707 38.51386173 -84 21 C-83.20722656 20.22140625 -82.41445313 19.4428125 -81.59765625 18.640625 C-70.29340176 7.98083494 -59.01515783 1.13193532 -44 -3 C-43.38962891 -3.17813232 -42.77925781 -3.35626465 -42.15039062 -3.53979492 C-28.99472677 -6.35523842 -12.36828834 -5.25161449 0 0 Z " fill="#FEFDFD" transform="translate(560,838)"/>
<path d="M0 0 C1.05574219 -0.01611328 2.11148437 -0.03222656 3.19921875 -0.04882812 C13.0330241 -0.05484637 22.06910797 1.88158674 31.125 5.75 C32.06085938 6.14058594 32.99671875 6.53117188 33.9609375 6.93359375 C39.7973874 9.8191215 44.87999165 13.83147656 50 17.8125 C50.62390625 18.28558594 51.2478125 18.75867188 51.890625 19.24609375 C57.44195326 23.56512285 57.44195326 23.56512285 58.75 27.3125 C59.41 27.3125 60.07 27.3125 60.75 27.3125 C75.75483867 40.69631732 85.56643176 63.60487682 91.75 82.3125 C92.11738281 83.41464844 92.48476562 84.51679687 92.86328125 85.65234375 C97.79899377 101.67911685 100.8355651 118.96187973 100.98828125 135.734375 C101.00297203 137.06906075 101.00297203 137.06906075 101.01795959 138.43070984 C101.26122091 166.30040332 99.84754589 192.69956403 90.75 219.3125 C90.40630371 220.32111084 90.40630371 220.32111084 90.05566406 221.35009766 C79.71957665 250.83569971 60.9204901 278.79188008 32.33105469 292.88427734 C15.85918647 300.53161669 -3.97575116 302.48364485 -21.25 296.3125 C-22.24128906 295.96058594 -23.23257812 295.60867188 -24.25390625 295.24609375 C-31.51508004 292.43621424 -37.81287018 288.65284486 -44.25 284.3125 C-45.3225 283.673125 -46.395 283.03375 -47.5 282.375 C-50.60126856 280.04904858 -52.89807618 277.49084704 -55.3828125 274.53125 C-57.98599536 271.4379281 -60.72571251 268.47207051 -63.453125 265.48828125 C-65.33694154 263.20722513 -66.76952941 260.87040202 -68.25 258.3125 C-69.22018102 256.84817345 -70.19926681 255.38970475 -71.1875 253.9375 C-78.09144542 243.59858666 -82.86531383 232.79713284 -86.94140625 221.0625 C-87.66188245 218.99785179 -88.39749716 216.9375465 -89.19799805 214.90258789 C-92.00998086 207.63117791 -93.60138901 200.41867559 -94.9375 192.75 C-95.25557617 191.0184668 -95.25557617 191.0184668 -95.58007812 189.25195312 C-103.21683016 146.78004825 -99.68072888 98.30758577 -79.47265625 59.68359375 C-78.68525726 58.15659316 -77.93910684 56.6072443 -77.24609375 55.03515625 C-73.27874149 46.23671083 -67.1949047 38.842993 -61.25 31.3125 C-60.60675781 30.49136719 -59.96351563 29.67023437 -59.30078125 28.82421875 C-44.47355677 10.90948506 -23.10642268 -0.06951391 0 0 Z " fill="#FEFDFD" transform="translate(1065.25,833.6875)"/>
<path d="M0 0 C3.60150159 2.05730281 6.7972039 4.37177301 10 7 C10.69480469 7.53367187 11.38960937 8.06734375 12.10546875 8.6171875 C27.72953286 21.24940955 36.52461146 42.47190034 41.1875 61.5 C41.35483643 62.17611328 41.52217285 62.85222656 41.69458008 63.54882812 C46.41983933 83.96077837 45.77521276 107.66064629 41 128 C40.71793701 129.20462891 40.71793701 129.20462891 40.43017578 130.43359375 C34.77513697 153.50363274 23.71017853 175.20655638 3 188 C0.3949705 189.5572501 -2.18686006 190.86265631 -5 192 C-5.721875 192.29777344 -6.44375 192.59554688 -7.1875 192.90234375 C-19.99982366 197.47516321 -32.2947938 195.31342498 -44.390625 189.9375 C-50.82455956 186.69803644 -55.89561792 182.02165304 -61 177 C-61.70253906 176.31035156 -62.40507813 175.62070313 -63.12890625 174.91015625 C-76.78332618 160.56099088 -83.82106836 140.23766376 -87 121 C-87.16701416 120.06865234 -87.33402832 119.13730469 -87.50610352 118.17773438 C-88.86735054 110.15685741 -89.33551324 102.37827526 -89.3125 94.25 C-89.32861328 93.09628906 -89.34472656 91.94257812 -89.36132812 90.75390625 C-89.36527225 83.83590587 -88.59056417 78.42514596 -86 72 C-84 75 -84 75 -82.80859375 77.26953125 C-79.24794662 83.87346652 -75.5856491 87.46822712 -69 91 C-67.9275 91.61875 -66.855 92.2375 -65.75 92.875 C-55.21635923 96.03509223 -45.45262209 93.96626289 -35.9375 88.90234375 C-28.99187322 84.48648189 -25.81912382 77.83994073 -24 70 C-23.71174819 66.9937982 -23.67483891 64.01840362 -23.6875 61 C-23.67138672 60.23171875 -23.65527344 59.4634375 -23.63867188 58.671875 C-23.63205254 50.88753729 -26.26183641 45.22730072 -31 39 C-37.84335018 32.15664982 -45.42542168 29.62302177 -55.0625 29.5 C-60.74317437 29.53311574 -65.3511146 30.33454035 -70.30078125 33.22265625 C-72 34 -72 34 -75 33 C-69.93763043 24.97193708 -64.66587854 17.78041254 -58 11 C-57.29101562 10.278125 -56.58203125 9.55625 -55.8515625 8.8125 C-39.94762688 -6.34504153 -19.55974767 -8.89486807 0 0 Z " fill="#6D4D42" transform="translate(1089,905)"/>
<path d="M0 0 C21.60741486 13.82874551 33.29680499 36.13202233 38.875 60.5078125 C46.36203609 95.66062014 42.42956166 133.53304753 23.00390625 164.2734375 C13.84774885 177.42735376 1.58460918 188.8940046 -14.375 192.91015625 C-30.35631839 195.24833209 -43.03148987 191.73649137 -56.125 182.3125 C-56.74890625 181.87421875 -57.3728125 181.4359375 -58.015625 180.984375 C-78.28608677 165.26055886 -87.5113385 136.63679757 -90.65625 112.24609375 C-92.13633618 98.40672735 -91.97726329 84.74956125 -88.125 71.3125 C-87.02926767 72.9560985 -85.95166229 74.61466978 -84.96875 76.328125 C-80.08739965 84.44478896 -73.33822017 89.8293399 -64.125 92.3125 C-53.69445533 93.51213892 -44.55088993 91.99538181 -35.96484375 85.73828125 C-29.6857398 80.01909739 -26.45117706 72.15703138 -25.88671875 63.7734375 C-25.61488383 53.77064726 -26.53139031 45.87360671 -32.625 37.5625 C-38.42458343 31.4888069 -45.73724508 28.10358469 -54.12304688 27.70288086 C-60.9081596 27.65232952 -66.82719208 28.71466211 -73.0859375 31.4375 C-75.125 32.3125 -75.125 32.3125 -77.125 32.3125 C-71.71042479 16.69572518 -56.60556072 3.31973232 -42.20703125 -3.86328125 C-27.75452989 -9.58462794 -13.30122124 -7.41481122 0 0 Z " fill="#6D4D43" transform="translate(558.125,906.6875)"/>
<path d="M0 0 C4.76193957 2.16724494 8.50971281 5.53772854 12.375 9 C29.0561271 23.71637541 52.63647688 27.18539894 74 26 C93.65483529 24.08898501 109.94458993 15.38262832 124.78515625 2.8203125 C128.8458289 -0.51703045 132.10729341 -0.33490739 137.23828125 -0.28125 C142.38802556 0.24319355 145.01372397 2.88044342 148.3125 6.625 C150.53183629 9.74851033 151.17279307 11.46686049 151.25 15.25 C151.28867187 16.37148437 151.28867187 16.37148437 151.328125 17.515625 C150.09633662 26.84202275 141.68954405 32.15965916 134.79296875 37.51953125 C122.07968177 47.11992439 108.29983493 53.6191362 93 58 C91.46472656 58.47953125 91.46472656 58.47953125 89.8984375 58.96875 C63.08717576 66.15390203 31.51796719 60.56596678 7.5625 47.0625 C2.01189665 43.8036493 -3.11022055 40.18239725 -8 36 C-8.86753906 35.27683594 -9.73507812 34.55367187 -10.62890625 33.80859375 C-21.33056539 24.60236296 -21.33056539 24.60236296 -22.5 16.5625 C-21.68625973 10.7646006 -19.67640524 6.55666201 -15.375 2.5625 C-10.39721381 -0.71235934 -5.86546754 -0.81572727 0 0 Z " fill="#D64416" transform="translate(737,1189)"/>
<path d="M0 0 C7.77061662 4.85170479 13.4012212 10.33351451 16.53125 19.06640625 C18.88883861 29.30236885 18.41088006 40.10498384 13.30859375 49.44140625 C8.75909955 56.7028552 2.20720126 60.43389957 -5.69140625 63.44140625 C-16.98524667 65.77903407 -26.69332502 64.38832763 -36.3984375 58.12890625 C-43.29609791 53.05260421 -46.87406182 46.80728229 -48.69140625 38.44140625 C-49.88954191 27.4230372 -48.86384689 17.55679413 -42.15234375 8.32421875 C-32.07029321 -2.80904085 -13.61610979 -6.5899216 0 0 Z " fill="#D64417" transform="translate(815.69140625,1102.55859375)"/>
<path d="M0 0 C22.05318097 0.46824465 44.00281364 1.30961219 66 3 C66 3.33 66 3.66 66 4 C60.90967159 4.02468084 55.81937785 4.04285082 50.72900391 4.05493164 C48.99657586 4.05996682 47.26415208 4.06679532 45.53173828 4.07543945 C43.04458567 4.08754065 40.55748913 4.09323638 38.0703125 4.09765625 C36.90461227 4.10539818 36.90461227 4.10539818 35.71536255 4.11329651 C30.22774341 4.11387171 30.22774341 4.11387171 28 3 C26.23461106 2.87051872 24.46490458 2.79757991 22.6953125 2.75390625 C21.63699219 2.72103516 20.57867188 2.68816406 19.48828125 2.65429688 C17.25400392 2.59331486 15.01962346 2.53599682 12.78515625 2.48242188 C11.19380859 2.43118164 11.19380859 2.43118164 9.5703125 2.37890625 C8.59852051 2.3538501 7.62672852 2.32879395 6.62548828 2.30297852 C3.96886376 1.99640691 2.28512747 1.35060963 0 0 Z " fill="#E2C2BA" transform="translate(636,771)"/>
<path d="M0 0 C-3 2 -3 2 -6.4375 2.4375 C-10.10911415 3.01722855 -11.16154603 3.84669009 -14 6 C-15.33961037 5.69286332 -16.67169545 5.35283978 -18 5 C-20.09647443 4.85321886 -22.19641323 4.75294862 -24.296875 4.68359375 C-25.50214844 4.64169922 -26.70742188 4.59980469 -27.94921875 4.55664062 C-29.20347656 4.51732422 -30.45773437 4.47800781 -31.75 4.4375 C-33.01972656 4.39431641 -34.28945313 4.35113281 -35.59765625 4.30664062 C-38.73166365 4.20060278 -41.86574933 4.09853942 -45 4 C-45 3.67 -45 3.34 -45 3 C-43.88310791 2.97812622 -43.88310791 2.97812622 -42.74365234 2.95581055 C-24.43735452 2.75886982 -24.43735452 2.75886982 -6.50390625 -0.4765625 C-3.90480473 -1.01990042 -2.47556782 -0.87786093 0 0 Z " fill="#FEC6AE" transform="translate(834,1247)"/>
<path d="M0 0 C0 0.33 0 0.66 0 1 C-4.69522982 1.43185088 -9.39086211 1.85892103 -14.08691406 2.28173828 C-15.68143185 2.42596116 -17.27583605 2.57144597 -18.87011719 2.71826172 C-21.17353419 2.93015302 -23.47733364 3.13736764 -25.78125 3.34375 C-26.83487732 3.44218201 -26.83487732 3.44218201 -27.90979004 3.54260254 C-32.62435235 3.95896293 -37.26685286 4.05568408 -42 4 C-38.78545851 0.78545851 -35.75471447 0.84243698 -31.40625 0.68359375 C-29.735625 0.62075195 -29.735625 0.62075195 -28.03125 0.55664062 C-26.28328125 0.49766602 -26.28328125 0.49766602 -24.5 0.4375 C-23.365625 0.39431641 -22.23125 0.35113281 -21.0625 0.30664062 C-14.03853289 0.05290787 -7.02829336 -0.05596341 0 0 Z " fill="#DABEB6" transform="translate(1002,1292)"/>
<path d="M0 0 C1.50050978 0.28903262 3.00037738 0.58139919 4.5 0.875 C5.75296875 1.11863281 5.75296875 1.11863281 7.03125 1.3671875 C9.28132279 1.84680828 11.50976578 2.42932479 13.72265625 3.05859375 C18.47155562 4.25786737 23.06333762 4.25803243 27.9375 4.1875 C28.77990234 4.18685547 29.62230469 4.18621094 30.49023438 4.18554688 C36.05971951 4.14695922 41.47465743 3.69694028 47 3 C45.19563907 5.35264956 44.29278549 5.95600109 41.3112793 6.40405273 C39.70893433 6.41867554 39.70893433 6.41867554 38.07421875 6.43359375 C36.89069824 6.44471191 35.70717773 6.45583008 34.48779297 6.46728516 C32.60664795 6.4525415 32.60664795 6.4525415 30.6875 6.4375 C28.78701904 6.43049072 28.78701904 6.43049072 26.84814453 6.42333984 C6.09511265 6.09511265 6.09511265 6.09511265 0 0 Z " fill="#F7D3CA" transform="translate(1038,1128)"/>
<path d="M0 0 C0 6.74804141 -6.35832605 11.62315181 -10.78125 16.14453125 C-12.96416585 17.97003306 -14.22288403 18.61499074 -17 19 C-5.85714286 5.85714286 -5.85714286 5.85714286 0 0 Z " fill="#F3CEC1" transform="translate(379,826)"/>
<path d="M0 0 C0.66 0 1.32 0 2 0 C2.51949219 1.05058594 3.03898437 2.10117188 3.57421875 3.18359375 C4.27823823 4.60176492 4.98269383 6.01971964 5.6875 7.4375 C6.23071899 8.53215576 6.23071899 8.53215576 6.78491211 9.64892578 C9.1243098 14.33396371 11.57561277 18.9142729 14.28515625 23.3984375 C14.52105469 23.92695312 14.75695312 24.45546875 15 25 C14.67 25.66 14.34 26.32 14 27 C9.55102606 21.78396159 7.01987619 16.52575386 5 10 C4.34 10 3.68 10 3 10 C3 9.01 3 8.02 3 7 C2.34 7 1.68 7 1 7 C0.67 4.69 0.34 2.38 0 0 Z " fill="#5D5F60" transform="translate(323,1125)"/>
<path d="M0 0 C0.99 0.33 1.98 0.66 3 1 C2.34 1.66 1.68 2.32 1 3 C0.83322718 6.58343976 0.83322718 6.58343976 1 10 C-1.8125 11.5625 -1.8125 11.5625 -5 13 C-5.99 12.67 -6.98 12.34 -8 12 C-5.36 8.04 -2.72 4.08 0 0 Z " fill="#715B53" transform="translate(1022,926)"/>
<path d="M0 0 C0.66 0.99 1.32 1.98 2 3 C2.48597656 3.72316406 2.97195313 4.44632813 3.47265625 5.19140625 C3.99730469 5.97386719 4.52195312 6.75632812 5.0625 7.5625 C5.58972656 8.34753906 6.11695313 9.13257813 6.66015625 9.94140625 C8 12 8 12 9 14 C8.401875 13.690625 7.80375 13.38125 7.1875 13.0625 C3.64116674 11.33999528 1.74326109 10.83829828 -2 12 C-1 3.42857143 -1 3.42857143 0 0 Z " fill="#755C57" transform="translate(470,978)"/>
<path d="M0 0 C4.52615993 3.67832017 8.39424999 7.41086363 12 12 C4.61491108 11.51573187 4.61491108 11.51573187 2.0625 9.375 C0.67967311 6.2839752 0.32259135 3.35495 0 0 Z " fill="#EFC9BF" transform="translate(1224,827)"/>
<path d="M0 0 C2.29744275 3.44616412 3.63470079 7.01889994 5.0625 10.875 C5.33126953 11.58269531 5.60003906 12.29039063 5.87695312 13.01953125 C7.23541609 16.65790838 8.38799576 20.14663997 9 24 C8.34 24 7.68 24 7 24 C7 23.01 7 22.02 7 21 C6.01 20.67 5.02 20.34 4 20 C3.33984375 18.14453125 3.33984375 18.14453125 2.9375 15.8125 C2.40339427 12.98039313 1.82305529 10.48882638 0.875 7.75 C-0.00221477 4.99303928 -0.16887928 2.87094768 0 0 Z " fill="#606263" transform="translate(314,1099)"/>
<path d="M0 0 C1.85776765 3.13498292 2.20140476 5.37471432 2 9 C2.99 9 3.98 9 5 9 C4.98839844 9.77085937 4.97679687 10.54171875 4.96484375 11.3359375 C4.95582031 12.33882812 4.94679688 13.34171875 4.9375 14.375 C4.92589844 15.37273438 4.91429687 16.37046875 4.90234375 17.3984375 C4.81993398 19.98432453 4.81993398 19.98432453 6 22 C5.34 22 4.68 22 4 22 C3.67 22.66 3.34 23.32 3 24 C2.49357075 20.93852743 1.99600678 17.87567701 1.5 14.8125 C1.35691406 13.94818359 1.21382812 13.08386719 1.06640625 12.19335938 C0.40685738 8.09473423 -0.20709266 4.16773976 0 0 Z " fill="#585D5F" transform="translate(1295,944)"/>
<path d="M0 0 C0.66 0.33 1.32 0.66 2 1 C0.04761147 3.00612399 -1.91137822 5.00492433 -3.875 7 C-4.43058594 7.57234375 -4.98617187 8.1446875 -5.55859375 8.734375 C-7.00134404 10.19450782 -8.4974374 11.60149298 -10 13 C-10.66 13 -11.32 13 -12 13 C-12.268125 13.61875 -12.53625 14.2375 -12.8125 14.875 C-14 17 -14 17 -17 19 C-13.40714907 11.13409821 -6.53396433 5.4308275 0 0 Z " fill="#FEF3ED" transform="translate(1019,850)"/>
<path d="M0 0 C0.99 0.33 1.98 0.66 3 1 C2.278125 1.70125 1.55625 2.4025 0.8125 3.125 C-4.56431436 8.4226512 -4.56431436 8.4226512 -8 15 C-9.62332967 16.38576923 -11.28724465 17.72641268 -13 19 C-13 15.1136865 -11.76808101 14.14236735 -9.3125 11.1875 C-8.58675781 10.30707031 -7.86101562 9.42664063 -7.11328125 8.51953125 C-6.06720703 7.27236328 -6.06720703 7.27236328 -5 6 C-4.45730469 5.34386719 -3.91460937 4.68773437 -3.35546875 4.01171875 C-2.24351348 2.66904078 -1.12294656 1.33349904 0 0 Z " fill="#59666D" transform="translate(243,549)"/>
<path d="M0 0 C17.07829978 -0.44295302 17.07829978 -0.44295302 24 2 C24.33 2.66 24.66 3.32 25 4 C21.95808469 3.68978487 18.91648266 3.37690547 15.875 3.0625 C15.0190625 2.97548828 14.163125 2.88847656 13.28125 2.79882812 C8.82280819 2.33583609 4.41326006 1.80306863 0 1 C0 0.67 0 0.34 0 0 Z " fill="#DBBCB4" transform="translate(584,1285)"/>
<path d="M0 0 C0 1.32 0 2.64 0 4 C-1.175625 3.814375 -2.35125 3.62875 -3.5625 3.4375 C-7.61268594 2.91769004 -10.99874453 3.2497646 -15 4 C-10.12122339 0.74748226 -5.86865048 -1.95621683 0 0 Z " fill="#565D62" transform="translate(1167,1258)"/>
<path d="M0 0 C0.33 0 0.66 0 1 0 C0.54593375 7.95398808 -0.87111461 15.32797907 -3 23 C-3.33 23 -3.66 23 -4 23 C-4.02688151 21.35425434 -4.04634123 19.70838587 -4.0625 18.0625 C-4.07410156 17.14597656 -4.08570313 16.22945312 -4.09765625 15.28515625 C-4 13 -4 13 -3 12 C-2.77097235 10.00418759 -2.54255296 8.00829833 -2.3203125 6.01171875 C-1.95553678 3.72074928 -1.22822769 1.96516431 0 0 Z " fill="#F7D6CD" transform="translate(440,923)"/>
<path d="M0 0 C0.66 0.66 1.32 1.32 2 2 C1.59007812 3.08539062 1.18015625 4.17078125 0.7578125 5.2890625 C0.21348243 6.73435269 -0.33078509 8.17966644 -0.875 9.625 C-1.27912109 10.69427734 -1.27912109 10.69427734 -1.69140625 11.78515625 C-3.2134184 15.83148122 -4.66372172 19.88737656 -6 24 C-8.38839264 16.83482208 -3.17543732 6.66841837 0 0 Z " fill="#F6D0C6" transform="translate(448,898)"/>
<path d="M0 0 C5.18935344 0.43244612 7.92084904 0.71036213 12 4 C14.31347872 4.73260159 16.645752 5.411438 19 6 C19 6.66 19 7.32 19 8 C12.38757278 6.17778624 6.19479329 3.94776396 0 1 C0 0.67 0 0.34 0 0 Z " fill="#CE512E" transform="translate(748,1237)"/>
<path d="M0 0 C0.99 0.33 1.98 0.66 3 1 C-1.42442592 4.71080883 -6.17403931 7.84577733 -11 11 C-11 10.01 -11 9.02 -11 8 C-10.34 8 -9.68 8 -9 8 C-8.67 7.01 -8.34 6.02 -8 5 C-6.67696283 4.6278958 -5.34262065 4.29369827 -4 4 C-3.67 3.34 -3.34 2.68 -3 2 C-2.01 2 -1.02 2 0 2 C0 1.34 0 0.68 0 0 Z " fill="#E6C5BF" transform="translate(1211,1227)"/>
<path d="M0 0 C0 3 0 3 -2 6 C-3.34532353 7.26157849 -4.72310136 8.48910278 -6.125 9.6875 C-6.84945313 10.31011719 -7.57390625 10.93273437 -8.3203125 11.57421875 C-8.87460938 12.04472656 -9.42890625 12.51523437 -10 13 C-10.66 12.67 -11.32 12.34 -12 12 C-8.04 8.04 -4.08 4.08 0 0 Z " fill="#6B554E" transform="translate(1036,911)"/>
<path d="M0 0 C-3.01552571 2.5967027 -5.14832739 4.13026748 -9 5 C-11.2072358 6.48800372 -11.2072358 6.48800372 -13 8 C-13.66 7.34 -14.32 6.68 -15 6 C-13.07010782 4.80017556 -11.13080772 3.61547182 -9.1875 2.4375 C-8.10855469 1.77621094 -7.02960938 1.11492188 -5.91796875 0.43359375 C-3 -1 -3 -1 0 0 Z " fill="#725952" transform="translate(1052,904)"/>
<path d="M0 0 C1 2 1 2 0.3125 4.5 C-1.21868253 7.41653815 -2.16478108 7.58239054 -5 9 C-6.23290201 11.45704762 -6.23290201 11.45704762 -7 14 C-7.33 14.66 -7.66 15.32 -8 16 C-8.66 15.67 -9.32 15.34 -10 15 C-8.89789095 13.24870343 -7.79322568 11.49901536 -6.6875 9.75 C-6.07261719 8.77546875 -5.45773437 7.8009375 -4.82421875 6.796875 C-3.29524241 4.45266287 -1.71179023 2.21215968 0 0 Z " fill="#E6C7BE" transform="translate(342,868)"/>
<path d="M0 0 C-3.63719605 2.42479736 -5.85703482 2.38662577 -10.1875 2.625 C-11.45980469 2.69976563 -12.73210938 2.77453125 -14.04296875 2.8515625 C-15.01878906 2.90054687 -15.99460937 2.94953125 -17 3 C-11.22689857 -1.51175154 -6.99286551 -1.0667083 0 0 Z " fill="#FAB49A" transform="translate(821,1213)"/>
<path d="M0 0 C0.50789062 0.39832031 1.01578125 0.79664063 1.5390625 1.20703125 C5.53903498 4.28566175 9.36879143 6.91595614 14 9 C12.4375 9.75 12.4375 9.75 10 10 C5.70623883 7.96611313 2.40321568 6.24096885 0 2 C0 1.34 0 0.68 0 0 Z " fill="#FDBEA4" transform="translate(773,1155)"/>
<path d="M0 0 C1.32 0.66 2.64 1.32 4 2 C2.6905332 3.33631236 1.37734515 4.66897925 0.0625 6 C-0.66839844 6.7425 -1.39929687 7.485 -2.15234375 8.25 C-4 10 -4 10 -5 10 C-5 8.35 -5 6.7 -5 5 C-4.01 4.67 -3.02 4.34 -2 4 C-0.79117904 1.99983534 -0.79117904 1.99983534 0 0 Z " fill="#EDC8BD" transform="translate(1238,1201)"/>
<path d="M0 0 C3.58806317 3.38872633 6.45684799 6.76141332 9 11 C9 11.66 9 12.32 9 13 C8.34 13 7.68 13 7 13 C7 12.34 7 11.68 7 11 C6.34 11 5.68 11 5 11 C5 10.34 5 9.68 5 9 C4.34 9 3.68 9 3 9 C1.76078698 6.02588876 0.69941596 3.14737182 0 0 Z " fill="#E8C6BE" transform="translate(1257,864)"/>
<path d="M0 0 C0.33 0.66 0.66 1.32 1 2 C-2.3 4.64 -5.6 7.28 -9 10 C-9.66 9.67 -10.32 9.34 -11 9 C-11 8.34 -11 7.68 -11 7 C-9.21601386 5.71993203 -7.37146094 4.52339649 -5.5 3.375 C-3.96859375 2.42753906 -3.96859375 2.42753906 -2.40625 1.4609375 C-1.6121875 0.97882813 -0.818125 0.49671875 0 0 Z " fill="#FDC0A8" transform="translate(870,1227)"/>
<path d="M0 0 C6.6008036 1.63941527 10.10886541 3.35157882 14 9 C9.98165669 9 8.50894113 7.43998366 5.3125 5.0625 C3.82169922 3.96615234 3.82169922 3.96615234 2.30078125 2.84765625 C1.54152344 2.23792969 0.78226562 1.62820313 0 1 C0 0.67 0 0.34 0 0 Z " fill="#E5C4BB" transform="translate(390,1209)"/>
<path d="M0 0 C1.32 0.33 2.64 0.66 4 1 C4 1.66 4 2.32 4 3 C4.94875 3.309375 5.8975 3.61875 6.875 3.9375 C10 5 10 5 12 6 C12.625 8.5625 12.625 8.5625 13 11 C8.30840284 7.61227103 3.9700218 4.21814817 0 0 Z " fill="#F8D4CB" transform="translate(1106,844)"/>
<path d="M0 0 C0.66 0.33 1.32 0.66 2 1 C1.67 1.99 1.34 2.98 1 4 C-2.5625 5.6875 -2.5625 5.6875 -6 7 C-6 5.68 -6 4.36 -6 3 C-4.03533587 1.93224776 -2.03144641 0.93446535 0 0 Z " fill="#4F6069" transform="translate(1268,1273)"/>
<path d="M0 0 C4.05819183 0.65503282 7.53971282 1.94559121 11.3125 3.5625 C12.38113281 4.01753906 13.44976562 4.47257812 14.55078125 4.94140625 C15.76314453 5.46541016 15.76314453 5.46541016 17 6 C12.92320841 7.6852084 10.16924407 6.16939007 6.25 4.5625 C5.07953125 4.08941406 3.9090625 3.61632813 2.703125 3.12890625 C1.81109375 2.75636719 0.9190625 2.38382813 0 2 C0 1.34 0 0.68 0 0 Z " fill="#5C5E5F" transform="translate(455,1249)"/>
<path d="M0 0 C0.66 1.32 1.32 2.64 2 4 C0.68 5.32 -0.64 6.64 -2 8 C-3.32 7.34 -4.64 6.68 -6 6 C-4.02 4.02 -2.04 2.04 0 0 Z " fill="#FDBFA7" transform="translate(885,1214)"/>
<path d="M0 0 C-0.639375 0.103125 -1.27875 0.20625 -1.9375 0.3125 C-2.618125 0.539375 -3.29875 0.76625 -4 1 C-4.33 1.99 -4.66 2.98 -5 4 C-8.63 4.33 -12.26 4.66 -16 5 C-13.13879225 3.09252817 -10.64745007 1.99646294 -7.4375 0.8125 C-6.46683594 0.44769531 -5.49617187 0.08289062 -4.49609375 -0.29296875 C-2 -1 -2 -1 0 0 Z " fill="#CF542E" transform="translate(842,1208)"/>
<path d="M0 0 C-2.34914492 2.34914492 -3.95679446 2.73140357 -7.125 3.625 C-8.03507813 3.88539062 -8.94515625 4.14578125 -9.8828125 4.4140625 C-10.58148437 4.60742188 -11.28015625 4.80078125 -12 5 C-11.67 4.34 -11.34 3.68 -11 3 C-10.34 3 -9.68 3 -9 3 C-9 2.01 -9 1.02 -9 0 C-5.93109813 -1.53445094 -3.29905734 -0.54984289 0 0 Z " fill="#FDBFAA" transform="translate(842,1206)"/>
<path d="M0 0 C0 0.66 0 1.32 0 2 C-0.928125 2.4021875 -0.928125 2.4021875 -1.875 2.8125 C-4.2995233 3.95556848 -4.2995233 3.95556848 -6 7 C-6.66 7 -7.32 7 -8 7 C-8.33 7.66 -8.66 8.32 -9 9 C-10.32 8.67 -11.64 8.34 -13 8 C-11.2126038 6.66094733 -9.41995047 5.32890934 -7.625 4 C-6.62726563 3.2575 -5.62953125 2.515 -4.6015625 1.75 C-2 0 -2 0 0 0 Z " fill="#F7D6CB" transform="translate(1116,1115)"/>
<path d="M0 0 C2.31 1.65 4.62 3.3 7 5 C5 7 5 7 2.375 7.125 C1.59125 7.08375 0.8075 7.0425 0 7 C0 4.69 0 2.38 0 0 Z " fill="#71564F" transform="translate(1098,912)"/>
<path d="M0 0 C0 4.1041911 -1.45843064 5.84021107 -4 9 C-6.75 9.875 -6.75 9.875 -9 10 C-8.06409496 8.8944811 -7.12620142 7.79064547 -6.1875 6.6875 C-5.66542969 6.07261719 -5.14335937 5.45773437 -4.60546875 4.82421875 C-3.12827531 3.14575321 -1.59960869 1.56117966 0 0 Z " fill="#DCBFB5" transform="translate(379,826)"/>
<path d="M0 0 C0.66 0 1.32 0 2 0 C2.33 1.32 2.66 2.64 3 4 C-2.75 8 -2.75 8 -5 8 C-3.63055898 5.05043472 -2.12169591 2.47531189 0 0 Z " fill="#E7EEF1" transform="translate(1086,313)"/>
<path d="M0 0 C5.28 0.99 10.56 1.98 16 3 C16 3.33 16 3.66 16 4 C14.27119018 4.05449838 12.54187288 4.09301688 10.8125 4.125 C9.84957031 4.14820313 8.88664063 4.17140625 7.89453125 4.1953125 C4.87187222 3.9913544 2.73230015 3.26874632 0 2 C0 1.34 0 0.68 0 0 Z " fill="#5D5F64" transform="translate(552,1279)"/>
<path d="M0 0 C0.66 0.33 1.32 0.66 2 1 C0.68 2.65 -0.64 4.3 -2 6 C-3.98 5.34 -5.96 4.68 -8 4 C-5.31143836 2.20762558 -3.0466145 1.01553817 0 0 Z " fill="#FDC1AB" transform="translate(848,1240)"/>
<path d="M0 0 C5.47932789 1.54545146 10.11429181 4.15543212 15 7 C15 7.66 15 8.32 15 9 C11.32305352 7.62859834 8.04681411 5.96304199 4.6875 3.9375 C3.80449219 3.41027344 2.92148437 2.88304687 2.01171875 2.33984375 C1.34785156 1.89769531 0.68398438 1.45554687 0 1 C0 0.67 0 0.34 0 0 Z " fill="#DFC3BC" transform="translate(414,1226)"/>
<path d="M0 0 C0.33 1.32 0.66 2.64 1 4 C-0.43359375 6.359375 -0.43359375 6.359375 -2.4375 8.75 C-3.42556641 9.94882813 -3.42556641 9.94882813 -4.43359375 11.171875 C-4.95050781 11.77515625 -5.46742187 12.3784375 -6 13 C-6.66 12.67 -7.32 12.34 -8 12 C-5.36 8.04 -2.72 4.08 0 0 Z " fill="#F6D6CA" transform="translate(1140,1085)"/>
<path d="M0 0 C0.33 0.99 0.66 1.98 1 3 C-1.31 5.31 -3.62 7.62 -6 10 C-6.33 9.01 -6.66 8.02 -7 7 C-4.66666667 4.66666667 -2.33333333 2.33333333 0 0 Z " fill="#606163" transform="translate(365,838)"/>
<path d="M0 0 C5.54959786 -0.36997319 5.54959786 -0.36997319 7.75 1.4375 C8.36875 2.2109375 8.36875 2.2109375 9 3 C9.66 3.33 10.32 3.66 11 4 C10.67 4.66 10.34 5.32 10 6 C5.05 4.02 5.05 4.02 0 2 C0 1.34 0 0.68 0 0 Z " fill="#E7C6BE" transform="translate(448,1244)"/>
<path d="M0 0 C0.33 0 0.66 0 1 0 C1.33 4.62 1.66 9.24 2 14 C1.01 14.66 0.02 15.32 -1 16 C-0.67 10.72 -0.34 5.44 0 0 Z " fill="#54575D" transform="translate(1298,1044)"/>
<path d="M0 0 C1.74834267 2.622514 2.51529754 3.99484478 3 7 C2.67 7.66 2.34 8.32 2 9 C0.68 8.34 -0.64 7.68 -2 7 C-1.125 2.25 -1.125 2.25 0 0 Z " fill="#79625B" transform="translate(1003,977)"/>
<path d="M0 0 C1.98 0.66 3.96 1.32 6 2 C3.3144406 4.6855594 0.62378672 5.06049974 -3 6 C-1.125 1.125 -1.125 1.125 0 0 Z " fill="#755E5A" transform="translate(484,933)"/>
<path d="M0 0 C2.6875 -0.3125 2.6875 -0.3125 6 0 C8.875 2.5 8.875 2.5 11 5 C9.35153231 4.55123384 7.70626545 4.09069512 6.0625 3.625 C5.14597656 3.36976562 4.22945313 3.11453125 3.28515625 2.8515625 C1 2 1 2 0 0 Z " fill="#E9C6BC" transform="translate(463,1251)"/>
<path d="M0 0 C-1.20842856 4.43090471 -2.51668565 6.98112756 -6 10 C-6 8.68 -6 7.36 -6 6 C-5.34 6 -4.68 6 -4 6 C-4.33 5.01 -4.66 4.02 -5 3 C-2.25 0 -2.25 0 0 0 Z " fill="#585D62" transform="translate(337,874)"/>
<path d="M0 0 C0.66 0.33 1.32 0.66 2 1 C0.47005208 2.23697917 -1.05989583 3.47395833 -2.58984375 4.7109375 C-4.13266437 5.9666391 -4.13266437 5.9666391 -5 8 C-5.99 7.67 -6.98 7.34 -8 7 C-6.88424427 3.65273281 -6.48655378 3.37920252 -3.5625 1.75 C-2.386875 1.1725 -1.21125 0.595 0 0 Z " fill="#56646B" transform="translate(1125,293)"/>
<path d="M0 0 C-2.58403608 2.53835868 -3.76068358 2.99485632 -7.453125 3.07421875 C-8.70609375 2.94660156 -9.9590625 2.81898437 -11.25 2.6875 C-13.14492188 2.50767578 -13.14492188 2.50767578 -15.078125 2.32421875 C-16.04234375 2.21722656 -17.0065625 2.11023437 -18 2 C-18 1.67 -18 1.34 -18 1 C-16.12528812 0.83012319 -14.25021305 0.66425224 -12.375 0.5 C-11.33085938 0.4071875 -10.28671875 0.314375 -9.2109375 0.21875 C-6.12853212 0.00875645 -3.08834771 -0.03709727 0 0 Z " fill="#5D5E63" transform="translate(1020,1291)"/>
<path d="M0 0 C0.66 0.99 1.32 1.98 2 3 C-0.52956528 6.0916909 -3.22454612 6.90931332 -7 8 C-6.02133662 6.85373678 -5.04205413 5.70800212 -4.0625 4.5625 C-3.51722656 3.92441406 -2.97195313 3.28632812 -2.41015625 2.62890625 C-1.63204305 1.73008851 -0.84063472 0.84063472 0 0 Z " fill="#565C60" transform="translate(1239,1205)"/>
<path d="M0 0 C2.12508244 3.18762365 2.5020163 5.26512223 3 9 C-1.875 4.375 -1.875 4.375 -3 1 C-2.01 0.67 -1.02 0.34 0 0 Z " fill="#526068" transform="translate(218,1170)"/>
<path d="M0 0 C3 1 3 1 4.0625 3 C4.371875 3.66 4.68125 4.32 5 5 C5.66 5.33 6.32 5.66 7 6 C7.625 8.0625 7.625 8.0625 8 10 C7.01 10.495 7.01 10.495 6 11 C4.99735282 9.35577799 3.99794896 7.70957779 3 6.0625 C2.443125 5.14597656 1.88625 4.22945312 1.3125 3.28515625 C0 1 0 1 0 0 Z " fill="#E9C7BF" transform="translate(336,1147)"/>
<path d="M0 0 C0.33 0.66 0.66 1.32 1 2 C0.34 2 -0.32 2 -1 2 C-1.33 2.99 -1.66 3.98 -2 5 C-3.9375 6.0625 -3.9375 6.0625 -6 7 C-6.66 7.66 -7.32 8.32 -8 9 C-8.99 8.67 -9.98 8.34 -11 8 C-7.37 5.36 -3.74 2.72 0 0 Z " fill="#745F58" transform="translate(510,906)"/>
<path d="M0 0 C1.32 0 2.64 0 4 0 C4 0.66 4 1.32 4 2 C4.66 2 5.32 2 6 2 C6.33 3.98 6.66 5.96 7 8 C3.75700849 5.61042731 1.49097658 3.7952131 0 0 Z " fill="#575A61" transform="translate(1248,851)"/>
<path d="M0 0 C0.66 0.33 1.32 0.66 2 1 C0.8803014 2.00593243 -0.2459412 3.0045849 -1.375 4 C-2.00148438 4.556875 -2.62796875 5.11375 -3.2734375 5.6875 C-5 7 -5 7 -7 7 C-6.875 5.1875 -6.875 5.1875 -6 3 C-3.0625 1.1875 -3.0625 1.1875 0 0 Z " fill="#FACFC7" transform="translate(488,847)"/>
<path d="M0 0 C0.66 1.32 1.32 2.64 2 4 C1.01 4.495 1.01 4.495 0 5 C-0.33 5.99 -0.66 6.98 -1 8 C-3.0625 9.6875 -3.0625 9.6875 -5 11 C-3.55049545 7.2089881 -1.84827434 3.6125362 0 0 Z " fill="#55636C" transform="translate(197,614)"/>
<path d="M0 0 C1.0536628 3.16098841 1.21514551 4.00887259 0 7 C-2.0625 8.75 -2.0625 8.75 -4 10 C-4.66 9.67 -5.32 9.34 -6 9 C-4.02 6.03 -2.04 3.06 0 0 Z " fill="#FDBFA4" transform="translate(830,1148)"/>
<path d="M0 0 C0.33 0 0.66 0 1 0 C1.08107583 1.93681161 1.13922475 3.8745934 1.1875 5.8125 C1.23970703 7.43091797 1.23970703 7.43091797 1.29296875 9.08203125 C1 12 1 12 -0.51171875 13.88671875 C-1.00285156 14.25410156 -1.49398437 14.62148437 -2 15 C-1.47462276 9.9697924 -0.89405214 4.98114761 0 0 Z " fill="#F8D5CD" transform="translate(630,1018)"/>
<path d="M0 0 C0.66 0.66 1.32 1.32 2 2 C1.2884375 2.6496875 1.2884375 2.6496875 0.5625 3.3125 C-1.23686957 5.02309613 -1.23686957 5.02309613 -2 8 C-3.32 7.67 -4.64 7.34 -6 7 C-4.02 4.69 -2.04 2.38 0 0 Z " fill="#EAC7BE" transform="translate(353,854)"/>
<path d="M0 0 C-3.42094242 2.28062828 -4.68187222 2.21925007 -8.6875 2.125 C-10.17830078 2.09792969 -10.17830078 2.09792969 -11.69921875 2.0703125 C-12.45847656 2.04710937 -13.21773437 2.02390625 -14 2 C-14 1.67 -14 1.34 -14 1 C-12.41913952 0.63495397 -10.83516093 0.28339494 -9.25 -0.0625 C-8.36828125 -0.25972656 -7.4865625 -0.45695312 -6.578125 -0.66015625 C-4.01320972 -0.99825872 -2.42908361 -0.81158635 0 0 Z " fill="#FAB398" transform="translate(834,1247)"/>
<path d="M0 0 C3.37462715 0.54723683 5.08235 1.0549 8 3 C5.03 3.66 2.06 4.32 -1 5 C-0.67 3.35 -0.34 1.7 0 0 Z " fill="#FDC3AA" transform="translate(754,1241)"/>
<path d="M0 0 C2.31 0.33 4.62 0.66 7 1 C7.33 2.65 7.66 4.3 8 6 C6.66402348 5.19185349 5.331275 4.37836819 4 3.5625 C3.2575 3.11003906 2.515 2.65757813 1.75 2.19140625 C1.1725 1.79824219 0.595 1.40507813 0 1 C0 0.67 0 0.34 0 0 Z " fill="#CD4D25" transform="translate(734,1228)"/>
<path d="M0 0 C3.81684226 1.55500981 6.19195732 4.03595495 9 7 C6.61435923 6.42415568 4.33317216 5.77772405 2 5 C2 4.34 2 3.68 2 3 C1.34 3 0.68 3 0 3 C0 2.01 0 1.02 0 0 Z " fill="#595A5E" transform="translate(379,1201)"/>
<path d="M0 0 C5.71562208 4.37792329 5.71562208 4.37792329 7 7.1875 C7 7.785625 7 8.38375 7 9 C6.34 9.66 5.68 10.32 5 11 C4.67 9.35 4.34 7.7 4 6 C3.01 5.67 2.02 5.34 1 5 C0.67 3.35 0.34 1.7 0 0 Z " fill="#CA4B24" transform="translate(880,1191)"/>
<path d="M0 0 C0.99 0.66 1.98 1.32 3 2 C2.01 4.31 1.02 6.62 0 9 C-0.99 8.67 -1.98 8.34 -3 8 C-1.125 2.25 -1.125 2.25 0 0 Z " fill="#5E6367" transform="translate(1268,1162)"/>
<path d="M0 0 C0.66 0 1.32 0 2 0 C0.79157144 4.43090471 -0.51668565 6.98112756 -4 10 C-4 8.35 -4 6.7 -4 5 C-3.01 5 -2.02 5 -1 5 C-0.67 3.35 -0.34 1.7 0 0 Z " fill="#CE542E" transform="translate(829,1146)"/>
<path d="M0 0 C0.66 0.33 1.32 0.66 2 1 C0.35 3.64 -1.3 6.28 -3 9 C-4.24675325 4.01298701 -4.24675325 4.01298701 -3 1 C-2.01 0.67 -1.02 0.34 0 0 Z " fill="#715B54" transform="translate(582,1065)"/>
<path d="M0 0 C3.08089673 2.77280706 4.68775452 5.06326356 6 9 C3.525 8.01 3.525 8.01 1 7 C0.67 4.69 0.34 2.38 0 0 Z " fill="#745E57" transform="translate(578,926)"/>
<path d="M0 0 C0.33 0.99 0.66 1.98 1 3 C0.21625 3.433125 -0.5675 3.86625 -1.375 4.3125 C-4.21698375 5.89220247 -4.21698375 5.89220247 -6 9 C-6.99 8.67 -7.98 8.34 -9 8 C-6.03 5.36 -3.06 2.72 0 0 Z " fill="#E6C6BE" transform="translate(396,811)"/>
<path d="M0 0 C3.98175544 2.10148204 6.35039045 4.36905358 9 8 C8.401875 7.690625 7.80375 7.38125 7.1875 7.0625 C4.91043228 5.89790296 4.91043228 5.89790296 2 5 C2 4.01 2 3.02 2 2 C1.34 2 0.68 2 0 2 C0 1.34 0 0.68 0 0 Z " fill="#CE522C" transform="translate(741,1192)"/>
<path d="M0 0 C0.66 1.32 1.32 2.64 2 4 C0.35 5.32 -1.3 6.64 -3 8 C-3 4.42424104 -1.91159393 2.94704065 0 0 Z " fill="#F8D2C7" transform="translate(610,1080)"/>
<path d="M0 0 C-0.6875 2.4375 -0.6875 2.4375 -2 5 C-4.5 5.75 -4.5 5.75 -7 6 C-7.99 6.495 -7.99 6.495 -9 7 C-7.68534669 3.05604006 -4.38536841 0 0 0 Z " fill="#EACABF" transform="translate(417,798)"/>
<path d="M0 0 C-0.99 1.485 -0.99 1.485 -2 3 C-5 3.3125 -5 3.3125 -8 3 C-8.66 2.34 -9.32 1.68 -10 1 C-6.52674819 -0.1577506 -3.63932552 -0.06866652 0 0 Z " fill="#58666E" transform="translate(1254,243)"/>
<path d="M0 0 C0.99 0.66 1.98 1.32 3 2 C-0.96 3.98 -0.96 3.98 -5 6 C-5 5.01 -5 4.02 -5 3 C-4.01 3 -3.02 3 -2 3 C-2 2.34 -2 1.68 -2 1 C-1.34 0.67 -0.68 0.34 0 0 Z " fill="#EDC9C1" transform="translate(1189,1241)"/>
<path d="M0 0 C1.32 0.66 2.64 1.32 4 2 C3.67 3.65 3.34 5.3 3 7 C1.68 6.01 0.36 5.02 -1 4 C-0.67 2.68 -0.34 1.36 0 0 Z " fill="#52626A" transform="translate(250,1209)"/>
<path d="M0 0 C0.66 0.33 1.32 0.66 2 1 C1.67 2.98 1.34 4.96 1 7 C-0.32 6.01 -1.64 5.02 -3 4 C-2.67 3.01 -2.34 2.02 -2 1 C-1.34 0.67 -0.68 0.34 0 0 Z " fill="#EFC8BB" transform="translate(371,1186)"/>
<path d="M0 0 C0.33 0.66 0.66 1.32 1 2 C-0.01620005 5.04860014 -0.77391571 5.86666922 -3 8 C-3.33 8.66 -3.66 9.32 -4 10 C-4.66 9.67 -5.32 9.34 -6 9 C-5.18914873 7.68648079 -4.37626942 6.37421332 -3.5625 5.0625 C-3.11003906 4.33160156 -2.65757812 3.60070313 -2.19140625 2.84765625 C-1 1 -1 1 0 0 Z " fill="#CE4E2B" transform="translate(775,1110)"/>
<path d="M0 0 C0.66 1.32 1.32 2.64 2 4 C1.01 4.99 0.02 5.98 -1 7 C-1.99 6.34 -2.98 5.68 -4 5 C-2.68 3.35 -1.36 1.7 0 0 Z " fill="#745852" transform="translate(528,985)"/>
<path d="M0 0 C0.6875 1.75 0.6875 1.75 1 4 C-0.3125 6.25 -0.3125 6.25 -2 8 C-2.66 8 -3.32 8 -4 8 C-3.40072174 4.64404172 -2.15377564 2.62198774 0 0 Z " fill="#6D564E" transform="translate(489,926)"/>
<path d="M0 0 C2.0625 2.3125 2.0625 2.3125 4 5 C3.67 5.99 3.34 6.98 3 8 C0.9375 6.25 0.9375 6.25 -1 4 C-0.75 1.75 -0.75 1.75 0 0 Z " fill="#556269" transform="translate(1396,592)"/>
<path d="M0 0 C1.65 0 3.3 0 5 0 C0.25 4.875 0.25 4.875 -2 6 C-1.49396008 3.83125748 -1.00016187 2.00032373 0 0 Z " fill="#E9EEF0" transform="translate(1061,332)"/>
<path d="M0 0 C-1 3 -1 3 -2.84765625 4.16796875 C-3.57855469 4.50441406 -4.30945313 4.84085938 -5.0625 5.1875 C-5.79597656 5.53167969 -6.52945313 5.87585937 -7.28515625 6.23046875 C-8.13400391 6.61138672 -8.13400391 6.61138672 -9 7 C-9 6.34 -9 5.68 -9 5 C-7.5390625 3.7109375 -7.5390625 3.7109375 -5.625 2.375 C-4.99851562 1.92898438 -4.37203125 1.48296875 -3.7265625 1.0234375 C-2 0 -2 0 0 0 Z " fill="#FCB7A0" transform="translate(853,1198)"/>
<path d="M0 0 C0.66 0.66 1.32 1.32 2 2 C1.625 4.125 1.625 4.125 1 6 C0.01 6 -0.98 6 -2 6 C-2 6.66 -2 7.32 -2 8 C-2.66 7.67 -3.32 7.34 -4 7 C-2.68 4.69 -1.36 2.38 0 0 Z " fill="#E7ECEE" transform="translate(1403,1143)"/>
<path d="M0 0 C0.66 0.99 1.32 1.98 2 3 C1.01 4.98 0.02 6.96 -1 9 C-1.66 8.67 -2.32 8.34 -3 8 C-1.125 2.25 -1.125 2.25 0 0 Z " fill="#FAD2CA" transform="translate(1149,1068)"/>
<path d="M0 0 C2.625 0.9375 2.625 0.9375 5 2 C4.01 3.485 4.01 3.485 3 5 C1.35 3.68 -0.3 2.36 -2 1 C-1.34 0.67 -0.68 0.34 0 0 Z " fill="#52626C" transform="translate(330,1273)"/>
<path d="M0 0 C0.99 0.66 1.98 1.32 3 2 C1.68 2.99 0.36 3.98 -1 5 C-1.99 4.01 -2.98 3.02 -4 2 C-2.68 1.34 -1.36 0.68 0 0 Z " fill="#53646E" transform="translate(324,1267)"/>
<path d="M0 0 C-4.75 4 -4.75 4 -7 4 C-6.625 2.0625 -6.625 2.0625 -6 0 C-3.50907189 -1.24546405 -2.58919267 -0.7767578 0 0 Z " fill="#CD4F23" transform="translate(880,1220)"/>
<path d="M0 0 C0.99 0 1.98 0 3 0 C3 3.63 3 7.26 3 11 C2.67 11 2.34 11 2 11 C1.34 7.37 0.68 3.74 0 0 Z " fill="#FDBAA0" transform="translate(886,1196)"/>
<path d="M0 0 C0.33 0.66 0.66 1.32 1 2 C0.06553465 4.03144641 -0.93224776 6.03533587 -2 8 C-2.66 8 -3.32 8 -4 8 C-2.25 2.25 -2.25 2.25 0 0 Z " fill="#CC4C27" transform="translate(720,1193)"/>
<path d="M0 0 C2.66735273 2.48952921 4.55746343 4.63408134 6 8 C3.5625 7.375 3.5625 7.375 1 6 C0.1875 2.875 0.1875 2.875 0 0 Z " fill="#606163" transform="translate(338,1152)"/>
<path d="M0 0 C2.475 0.495 2.475 0.495 5 1 C5 2.65 5 4.3 5 6 C4.01 5.67 3.02 5.34 2 5 C0.8125 2.4375 0.8125 2.4375 0 0 Z " fill="#715852" transform="translate(1018,1068)"/>
<path d="M0 0 C-0.66 1.65 -1.32 3.3 -2 5 C-3.32 3.35 -4.64 1.7 -6 0 C-3.50907189 -1.24546405 -2.58919267 -0.7767578 0 0 Z " fill="#546064" transform="translate(1263,863)"/>
<path d="M0 0 C0.99 0.33 1.98 0.66 3 1 C1.02 3.31 -0.96 5.62 -3 8 C-3.33 7.34 -3.66 6.68 -4 6 C-3.34 5.01 -2.68 4.02 -2 3 C-1.34 3 -0.68 3 0 3 C0 2.01 0 1.02 0 0 Z " fill="#565A5C" transform="translate(349,855)"/>
</svg>
